<svg width="261" height="39" viewBox="0 0 261 39" fill="none" xmlns="http://www.w3.org/2000/svg">
<path d="M7.568 30V7.824H0.05V2.616H21.302V7.824H13.784V30H7.568ZM31.1927 30.504C29.7087 30.504 28.3227 30.266 27.0347 29.79C25.7467 29.286 24.6267 28.572 23.6747 27.648C22.7227 26.696 21.9807 25.548 21.4487 24.204C20.9167 22.86 20.6507 21.32 20.6507 19.584C20.6507 17.904 20.9307 16.392 21.4907 15.048C22.0507 13.676 22.7787 12.528 23.6747 11.604C24.5987 10.652 25.6487 9.924 26.8247 9.42C28.0007 8.916 29.2187 8.664 30.4787 8.664C31.9627 8.664 33.2507 8.916 34.3427 9.42C35.4627 9.924 36.3867 10.624 37.1147 11.52C37.8707 12.416 38.4307 13.48 38.7947 14.712C39.1587 15.916 39.3407 17.232 39.3407 18.66C39.3407 19.22 39.3127 19.752 39.2567 20.256C39.2007 20.76 39.1447 21.138 39.0887 21.39H26.6147C26.8947 22.902 27.5107 24.022 28.4627 24.75C29.4427 25.45 30.6327 25.8 32.0327 25.8C33.5167 25.8 35.0147 25.338 36.5267 24.414L38.5847 28.152C37.5207 28.88 36.3307 29.454 35.0147 29.874C33.7267 30.294 32.4527 30.504 31.1927 30.504ZM26.5727 17.316H34.0907C34.0907 16.14 33.8247 15.188 33.2927 14.46C32.7607 13.732 31.8647 13.368 30.6047 13.368C29.6247 13.368 28.7567 13.69 28.0007 14.334C27.2727 14.978 26.7967 15.972 26.5727 17.316ZM43.607 30V0.557999H49.613V17.442H49.781L56.375 9.168H63.095L55.787 17.736L63.641 30H56.963L52.259 21.894L49.613 24.876V30H43.607ZM62.1244 21.558V17.19H72.4564V21.558H62.1244ZM83.9237 16.14L83.2517 18.66H89.0897L88.4597 16.14C88.0677 14.768 87.6897 13.312 87.3257 11.772C86.9617 10.232 86.5977 8.748 86.2337 7.32H86.0657C85.7297 8.776 85.3797 10.274 85.0157 11.814C84.6797 13.326 84.3157 14.768 83.9237 16.14ZM74.0117 30L82.5797 2.616H90.0137L98.5817 30H92.0297L90.3497 23.49H81.9917L80.3117 30H74.0117ZM100.146 21.558V17.19H110.478V21.558H100.146ZM115.015 30V0.557999H121.021V17.442H121.189L127.783 9.168H134.503L127.195 17.736L135.049 30H128.371L123.667 21.894L121.021 24.876V30H115.015ZM142.865 30.504C141.913 30.504 141.045 30.336 140.261 30C139.505 29.692 138.861 29.258 138.329 28.698C137.797 28.11 137.377 27.438 137.069 26.682C136.789 25.926 136.649 25.1 136.649 24.204C136.649 22.02 137.573 20.312 139.421 19.08C141.269 17.848 144.251 17.022 148.367 16.602C148.311 15.678 148.031 14.95 147.527 14.418C147.051 13.858 146.239 13.578 145.091 13.578C144.195 13.578 143.299 13.746 142.403 14.082C141.535 14.418 140.597 14.88 139.589 15.468L137.363 11.394C138.707 10.582 140.107 9.924 141.563 9.42C143.047 8.916 144.615 8.664 146.267 8.664C148.955 8.664 150.999 9.434 152.399 10.974C153.827 12.486 154.541 14.852 154.541 18.072V30H149.501L149.081 27.858H148.913C148.017 28.642 147.079 29.286 146.099 29.79C145.119 30.266 144.041 30.504 142.865 30.504ZM144.965 25.716C145.665 25.716 146.267 25.562 146.771 25.254C147.275 24.946 147.807 24.512 148.367 23.952V20.298C146.183 20.606 144.671 21.054 143.831 21.642C142.991 22.23 142.571 22.93 142.571 23.742C142.571 24.414 142.781 24.918 143.201 25.254C143.649 25.562 144.237 25.716 144.965 25.716ZM167.197 30.504C165.909 30.504 164.733 30.252 163.669 29.748C162.633 29.244 161.737 28.53 160.981 27.606C160.253 26.654 159.679 25.506 159.259 24.162C158.867 22.818 158.671 21.292 158.671 19.584C158.671 17.876 158.909 16.35 159.385 15.006C159.889 13.662 160.533 12.528 161.317 11.604C162.129 10.652 163.053 9.924 164.089 9.42C165.153 8.916 166.231 8.664 167.323 8.664C168.499 8.664 169.465 8.86 170.221 9.252C170.977 9.644 171.719 10.176 172.447 10.848L172.195 7.656V0.557999H178.369V30H173.329L172.909 27.942H172.741C172.013 28.67 171.159 29.286 170.179 29.79C169.199 30.266 168.205 30.504 167.197 30.504ZM168.793 25.464C169.465 25.464 170.067 25.324 170.599 25.044C171.159 24.764 171.691 24.274 172.195 23.574V15.048C171.635 14.544 171.061 14.194 170.473 13.998C169.885 13.802 169.311 13.704 168.751 13.704C167.771 13.704 166.903 14.18 166.147 15.132C165.391 16.056 165.013 17.512 165.013 19.5C165.013 21.572 165.335 23.084 165.979 24.036C166.651 24.988 167.589 25.464 168.793 25.464ZM193.163 30.504C191.679 30.504 190.293 30.266 189.005 29.79C187.717 29.286 186.597 28.572 185.645 27.648C184.693 26.696 183.951 25.548 183.419 24.204C182.887 22.86 182.621 21.32 182.621 19.584C182.621 17.904 182.901 16.392 183.461 15.048C184.021 13.676 184.749 12.528 185.645 11.604C186.569 10.652 187.619 9.924 188.795 9.42C189.971 8.916 191.189 8.664 192.449 8.664C193.933 8.664 195.221 8.916 196.313 9.42C197.433 9.924 198.357 10.624 199.085 11.52C199.841 12.416 200.401 13.48 200.765 14.712C201.129 15.916 201.311 17.232 201.311 18.66C201.311 19.22 201.283 19.752 201.227 20.256C201.171 20.76 201.115 21.138 201.059 21.39H188.585C188.865 22.902 189.481 24.022 190.433 24.75C191.413 25.45 192.603 25.8 194.003 25.8C195.487 25.8 196.985 25.338 198.497 24.414L200.555 28.152C199.491 28.88 198.301 29.454 196.985 29.874C195.697 30.294 194.423 30.504 193.163 30.504ZM188.543 17.316H196.061C196.061 16.14 195.795 15.188 195.263 14.46C194.731 13.732 193.835 13.368 192.575 13.368C191.595 13.368 190.727 13.69 189.971 14.334C189.243 14.978 188.767 15.972 188.543 17.316ZM205.578 30V9.168H210.618L211.038 11.856H211.206C212.074 10.988 212.998 10.246 213.978 9.63C214.958 8.986 216.134 8.664 217.506 8.664C218.99 8.664 220.18 8.972 221.076 9.588C222 10.176 222.728 11.03 223.26 12.15C224.184 11.198 225.15 10.386 226.158 9.714C227.194 9.014 228.412 8.664 229.812 8.664C232.052 8.664 233.69 9.42 234.726 10.932C235.79 12.416 236.322 14.46 236.322 17.064V30H230.148V17.862C230.148 16.35 229.938 15.314 229.518 14.754C229.126 14.194 228.482 13.914 227.586 13.914C226.55 13.914 225.36 14.586 224.016 15.93V30H217.842V17.862C217.842 16.35 217.632 15.314 217.212 14.754C216.82 14.194 216.176 13.914 215.28 13.914C214.216 13.914 213.04 14.586 211.752 15.93V30H205.578ZM243.899 38.148C243.255 38.148 242.709 38.106 242.261 38.022C241.813 37.966 241.379 37.868 240.959 37.728L242.051 33.024C242.247 33.08 242.471 33.136 242.723 33.192C242.975 33.248 243.213 33.276 243.437 33.276C244.473 33.276 245.271 33.024 245.831 32.52C246.391 32.016 246.811 31.358 247.091 30.546L247.385 29.454L239.363 9.168H245.579L248.561 18.114C248.869 19.066 249.149 20.032 249.401 21.012C249.653 21.992 249.919 23 250.199 24.036H250.367C250.591 23.056 250.815 22.076 251.039 21.096C251.291 20.088 251.543 19.094 251.795 18.114L254.315 9.168H260.237L253.013 30.21C252.509 31.526 251.977 32.674 251.417 33.654C250.885 34.662 250.255 35.488 249.527 36.132C248.827 36.804 248.015 37.308 247.091 37.644C246.195 37.98 245.131 38.148 243.899 38.148Z" fill="#FBFAFA"/>
</svg>
